<mxfile host="app.diagrams.net" modified="2023-07-24T14:36:11.809Z" agent="Mozilla/5.0 (Windows NT 10.0; Win64; x64; rv:109.0) Gecko/20100101 Firefox/115.0" etag="TwWm-oN2p0IlN0cG3ZZe" version="21.6.5">
  <diagram name="Page-1" id="NwIER86KM7Xjg2vl3YT1">
    <mxGraphModel dx="1175" dy="754" grid="1" gridSize="10" guides="1" tooltips="1" connect="1" arrows="1" fold="1" page="1" pageScale="1" pageWidth="827" pageHeight="1169" math="0" shadow="0">
      <root>
        <mxCell id="0" />
        <mxCell id="1" parent="0" />
        <mxCell id="a7JCiL4zdnh1f3paB66Q-4" value="&lt;div&gt;Starts subprocess&lt;/div&gt;&lt;div&gt;injected with D2Detours.dll&lt;/div&gt;&lt;div&gt;&lt;br&gt;&lt;/div&gt;&lt;div&gt;DetourCreateProcessWithDllExW&lt;/div&gt;" style="edgeStyle=orthogonalEdgeStyle;rounded=0;orthogonalLoop=1;jettySize=auto;html=1;" edge="1" parent="1" source="a7JCiL4zdnh1f3paB66Q-1" target="a7JCiL4zdnh1f3paB66Q-3">
          <mxGeometry relative="1" as="geometry" />
        </mxCell>
        <mxCell id="a7JCiL4zdnh1f3paB66Q-1" value="D2.DetoursLauncher.exe" style="rounded=0;whiteSpace=wrap;html=1;fillColor=#E6D0DE;" vertex="1" parent="1">
          <mxGeometry x="360" y="10" width="180" height="60" as="geometry" />
        </mxCell>
        <mxCell id="a7JCiL4zdnh1f3paB66Q-6" value="" style="edgeStyle=orthogonalEdgeStyle;rounded=0;orthogonalLoop=1;jettySize=auto;html=1;" edge="1" parent="1" source="a7JCiL4zdnh1f3paB66Q-3" target="a7JCiL4zdnh1f3paB66Q-5">
          <mxGeometry relative="1" as="geometry" />
        </mxCell>
        <mxCell id="a7JCiL4zdnh1f3paB66Q-9" value="" style="edgeStyle=orthogonalEdgeStyle;rounded=0;orthogonalLoop=1;jettySize=auto;html=1;" edge="1" parent="1" source="a7JCiL4zdnh1f3paB66Q-3" target="a7JCiL4zdnh1f3paB66Q-8">
          <mxGeometry relative="1" as="geometry" />
        </mxCell>
        <mxCell id="a7JCiL4zdnh1f3paB66Q-20" value="&lt;div&gt;Tries to load a .dll&lt;/div&gt;&lt;div&gt;through LoadLibrary&lt;br&gt;&lt;/div&gt;" style="edgeStyle=orthogonalEdgeStyle;rounded=0;orthogonalLoop=1;jettySize=auto;html=1;exitX=0.5;exitY=1;exitDx=0;exitDy=0;entryX=0.5;entryY=0;entryDx=0;entryDy=0;" edge="1" parent="1" source="a7JCiL4zdnh1f3paB66Q-3" target="a7JCiL4zdnh1f3paB66Q-17">
          <mxGeometry x="-0.2632" relative="1" as="geometry">
            <Array as="points">
              <mxPoint x="450" y="360" />
              <mxPoint x="630" y="360" />
            </Array>
            <mxPoint as="offset" />
          </mxGeometry>
        </mxCell>
        <mxCell id="a7JCiL4zdnh1f3paB66Q-30" value="&lt;div&gt;Sees the loriginal .dll&lt;/div&gt;&lt;div&gt;patched&lt;/div&gt;" style="edgeStyle=orthogonalEdgeStyle;rounded=0;orthogonalLoop=1;jettySize=auto;html=1;exitX=0.25;exitY=1;exitDx=0;exitDy=0;entryX=0.25;entryY=0;entryDx=0;entryDy=0;" edge="1" parent="1" source="a7JCiL4zdnh1f3paB66Q-3" target="a7JCiL4zdnh1f3paB66Q-13">
          <mxGeometry x="0.4118" relative="1" as="geometry">
            <mxPoint as="offset" />
          </mxGeometry>
        </mxCell>
        <mxCell id="a7JCiL4zdnh1f3paB66Q-3" value="Game.exe" style="whiteSpace=wrap;html=1;rounded=0;" vertex="1" parent="1">
          <mxGeometry x="390" y="190" width="120" height="60" as="geometry" />
        </mxCell>
        <mxCell id="a7JCiL4zdnh1f3paB66Q-12" value="&lt;div&gt;&lt;i&gt;DetoursAttachLoadLibraryFunctions()&lt;/i&gt;&lt;/div&gt;&lt;div&gt;&lt;br&gt;&lt;/div&gt;&lt;div&gt;LoadLibrary* will now go through D2Detours.dll&lt;br&gt;&lt;/div&gt;" style="edgeStyle=orthogonalEdgeStyle;rounded=0;orthogonalLoop=1;jettySize=auto;html=1;exitX=1;exitY=0.5;exitDx=0;exitDy=0;entryX=1;entryY=0.5;entryDx=0;entryDy=0;" edge="1" parent="1" source="a7JCiL4zdnh1f3paB66Q-5" target="a7JCiL4zdnh1f3paB66Q-8">
          <mxGeometry x="-0.0667" relative="1" as="geometry">
            <Array as="points">
              <mxPoint x="770" y="220" />
              <mxPoint x="770" y="360" />
            </Array>
            <mxPoint as="offset" />
          </mxGeometry>
        </mxCell>
        <mxCell id="a7JCiL4zdnh1f3paB66Q-23" style="edgeStyle=orthogonalEdgeStyle;rounded=0;orthogonalLoop=1;jettySize=auto;html=1;exitX=1;exitY=0.25;exitDx=0;exitDy=0;entryX=1;entryY=0.5;entryDx=0;entryDy=0;strokeColor=default;endArrow=classic;endFill=1;startArrow=classic;startFill=1;dashed=1;" edge="1" parent="1" source="a7JCiL4zdnh1f3paB66Q-5" target="a7JCiL4zdnh1f3paB66Q-17">
          <mxGeometry relative="1" as="geometry">
            <Array as="points">
              <mxPoint x="930" y="206" />
              <mxPoint x="930" y="490" />
            </Array>
          </mxGeometry>
        </mxCell>
        <mxCell id="a7JCiL4zdnh1f3paB66Q-39" style="edgeStyle=orthogonalEdgeStyle;rounded=0;orthogonalLoop=1;jettySize=auto;html=1;exitX=0.75;exitY=0;exitDx=0;exitDy=0;entryX=1;entryY=0.5;entryDx=0;entryDy=0;" edge="1" parent="1" source="a7JCiL4zdnh1f3paB66Q-5" target="a7JCiL4zdnh1f3paB66Q-24">
          <mxGeometry relative="1" as="geometry">
            <mxPoint x="1090" y="730" as="targetPoint" />
            <Array as="points">
              <mxPoint x="680" y="170" />
              <mxPoint x="1020" y="170" />
              <mxPoint x="1020" y="620" />
            </Array>
          </mxGeometry>
        </mxCell>
        <mxCell id="a7JCiL4zdnh1f3paB66Q-40" value="&lt;div&gt;Lists .dlls to be&amp;nbsp;&lt;/div&gt;&lt;div&gt;patched, possibly after startup&lt;br&gt;&lt;/div&gt;" style="edgeLabel;html=1;align=center;verticalAlign=middle;resizable=0;points=[];" vertex="1" connectable="0" parent="a7JCiL4zdnh1f3paB66Q-39">
          <mxGeometry x="-0.05" y="1" relative="1" as="geometry">
            <mxPoint x="-1" y="84" as="offset" />
          </mxGeometry>
        </mxCell>
        <mxCell id="a7JCiL4zdnh1f3paB66Q-5" value="D2Detours.dll" style="shape=parallelogram;perimeter=parallelogramPerimeter;whiteSpace=wrap;html=1;fixedSize=1;rounded=0;fillColor=#E6D0DE;" vertex="1" parent="1">
          <mxGeometry x="590" y="190" width="120" height="60" as="geometry" />
        </mxCell>
        <mxCell id="a7JCiL4zdnh1f3paB66Q-21" style="edgeStyle=orthogonalEdgeStyle;rounded=0;orthogonalLoop=1;jettySize=auto;html=1;" edge="1" parent="1" source="a7JCiL4zdnh1f3paB66Q-8" target="a7JCiL4zdnh1f3paB66Q-17">
          <mxGeometry relative="1" as="geometry" />
        </mxCell>
        <mxCell id="a7JCiL4zdnh1f3paB66Q-8" value="KernelBase.dll" style="shape=parallelogram;perimeter=parallelogramPerimeter;whiteSpace=wrap;html=1;fixedSize=1;rounded=0;" vertex="1" parent="1">
          <mxGeometry x="570" y="330" width="120" height="60" as="geometry" />
        </mxCell>
        <mxCell id="a7JCiL4zdnh1f3paB66Q-38" value="&lt;h2&gt;Original may replace Patch&lt;/h2&gt;&lt;h2&gt;Patch may replace Original&lt;/h2&gt;" style="edgeStyle=orthogonalEdgeStyle;rounded=0;orthogonalLoop=1;jettySize=auto;html=1;entryX=0;entryY=0.5;entryDx=0;entryDy=0;shape=flexArrow;startArrow=block;" edge="1" parent="1" source="a7JCiL4zdnh1f3paB66Q-13" target="a7JCiL4zdnh1f3paB66Q-36">
          <mxGeometry relative="1" as="geometry">
            <Array as="points">
              <mxPoint x="450" y="780" />
            </Array>
          </mxGeometry>
        </mxCell>
        <mxCell id="a7JCiL4zdnh1f3paB66Q-13" value="D2Common.dll" style="shape=parallelogram;perimeter=parallelogramPerimeter;whiteSpace=wrap;html=1;fixedSize=1;rounded=0;" vertex="1" parent="1">
          <mxGeometry x="390" y="590" width="120" height="60" as="geometry" />
        </mxCell>
        <mxCell id="a7JCiL4zdnh1f3paB66Q-28" style="edgeStyle=orthogonalEdgeStyle;rounded=0;orthogonalLoop=1;jettySize=auto;html=1;exitX=0.5;exitY=1;exitDx=0;exitDy=0;entryX=0.5;entryY=0;entryDx=0;entryDy=0;" edge="1" parent="1" source="a7JCiL4zdnh1f3paB66Q-17" target="a7JCiL4zdnh1f3paB66Q-13">
          <mxGeometry relative="1" as="geometry" />
        </mxCell>
        <mxCell id="a7JCiL4zdnh1f3paB66Q-29" value="&lt;b&gt;Loads patch first&lt;br&gt;&lt;/b&gt;" style="edgeStyle=orthogonalEdgeStyle;rounded=0;orthogonalLoop=1;jettySize=auto;html=1;exitX=0.5;exitY=1;exitDx=0;exitDy=0;entryX=0.5;entryY=0;entryDx=0;entryDy=0;" edge="1" parent="1" source="a7JCiL4zdnh1f3paB66Q-17" target="a7JCiL4zdnh1f3paB66Q-24">
          <mxGeometry relative="1" as="geometry" />
        </mxCell>
        <mxCell id="a7JCiL4zdnh1f3paB66Q-17" value="Detoured&lt;br&gt;&lt;i&gt;LoadLibrary()&lt;/i&gt;" style="shape=hexagon;perimeter=hexagonPerimeter2;whiteSpace=wrap;html=1;fixedSize=1;fillColor=#E6D0DE;" vertex="1" parent="1">
          <mxGeometry x="570" y="450" width="120" height="80" as="geometry" />
        </mxCell>
        <mxCell id="a7JCiL4zdnh1f3paB66Q-37" value="Provides patch list to be applied" style="edgeStyle=orthogonalEdgeStyle;rounded=0;orthogonalLoop=1;jettySize=auto;html=1;" edge="1" parent="1" source="a7JCiL4zdnh1f3paB66Q-24" target="a7JCiL4zdnh1f3paB66Q-36">
          <mxGeometry relative="1" as="geometry" />
        </mxCell>
        <mxCell id="a7JCiL4zdnh1f3paB66Q-24" value="&lt;div&gt;Patch&lt;/div&gt;&lt;div&gt;D2Common.dll&lt;/div&gt;" style="shape=parallelogram;perimeter=parallelogramPerimeter;whiteSpace=wrap;html=1;fixedSize=1;rounded=0;fillColor=#E6D0DE;" vertex="1" parent="1">
          <mxGeometry x="790" y="590" width="120" height="60" as="geometry" />
        </mxCell>
        <mxCell id="a7JCiL4zdnh1f3paB66Q-36" value="&lt;div&gt;&lt;i&gt;Get(Extra)PatchAction()&lt;/i&gt;&lt;/div&gt;&lt;div&gt;&lt;br&gt;&lt;/div&gt;&lt;div&gt;(From D2Common.patch.dll)&lt;br&gt;&lt;/div&gt;" style="shape=hexagon;perimeter=hexagonPerimeter2;whiteSpace=wrap;html=1;fixedSize=1;rounded=0;" vertex="1" parent="1">
          <mxGeometry x="750" y="740" width="200" height="80" as="geometry" />
        </mxCell>
      </root>
    </mxGraphModel>
  </diagram>
</mxfile>
